<svg xmlns="http://www.w3.org/2000/svg" viewBox="0 0 266.04 83.53"><defs><style>.cls-1{fill:#fff;}.cls-2{fill:#50bfbf;}.cls-3{fill:#86bf48;}</style></defs><title>Asset 8</title><g id="Layer_2" data-name="Layer 2"><g id="Layer_1-2" data-name="Layer 1"><path class="cls-1" d="M99,18.1l-.24,18.8,25.72.12v9.89H99.12L99,78.4H85.44V5.77h48V18Z"/><path class="cls-1" d="M211.54,78.4H199.45l.08-47-20.48,47h-7.61l-20.15-46-1.15,46H137.93v-72h11.22L175.24,64l26.1-57.57h10.2Z"/><path class="cls-1" d="M261,5.87v24h-2.07a28.16,28.16,0,0,0-3.6-11,18.25,18.25,0,0,0-7.41-6.49A22,22,0,0,0,238,10a14.3,14.3,0,0,0-9.61,3.25q-3.8,3.25-3.8,7.39A8.31,8.31,0,0,0,227,26.38q3.45,3.84,16.48,10.23,10.62,5.22,14.5,8a20,20,0,0,1,6,6.57,16.09,16.09,0,0,1,2.1,7.93q0,7.88-6.68,13.58t-17.19,5.7a39.35,39.35,0,0,1-6.2-.46,66.78,66.78,0,0,1-7.18-1.87,34.9,34.9,0,0,0-6.9-1.61,3.1,3.1,0,0,0-2.21.77,5.8,5.8,0,0,0-1.2,3.17h-2.07V54.62h2.07q1.46,7.46,3.91,11.17A18.3,18.3,0,0,0,229.91,72,25,25,0,0,0,241,74.41q7,0,11-3.38a9.71,9.71,0,0,0,2.51-13.14A15.79,15.79,0,0,0,249.77,53q-2.18-1.53-11.9-6.52a118,118,0,0,1-13.83-8A22,22,0,0,1,217.81,32a15.12,15.12,0,0,1-2.12-7.88q0-7.47,6.26-12.86t15.92-5.4a34.58,34.58,0,0,1,12.8,2.71,13.94,13.94,0,0,0,4.41,1.28,3.53,3.53,0,0,0,2.38-.79,6.13,6.13,0,0,0,1.48-3.2Z"/><path class="cls-2" d="M0,78.4V.4L62.25,0,58.83,5.77,39.91,40.31,27.22,27.62Z"/><path class="cls-3" d="M7.69,83.53h28V68H49.92c1.61-.17,17.26-2.1,25.52-16.48,7.41-12.9,3.1-25.81,2.44-27.7a28.63,28.63,0,0,0-4-8.91,28.16,28.16,0,0,0-5.62-6.11Q55.51,32.63,42.78,56.43L29.42,45.2Z"/></g></g></svg>